<svg width="259" height="55" viewBox="0 0 259 55" fill="none" xmlns="http://www.w3.org/2000/svg">
<path d="M19 10C8.52276 10 0 18.5236 0 29C0 39.4764 8.52276 48 19 48C29.4772 48 38 39.4764 38 29C38 18.5236 29.4772 10 19 10Z" fill="#0345EC"/>
<path d="M19 46.4167C9.39639 46.4167 1.58331 38.6036 1.58331 29C1.58331 19.3964 9.39639 11.5833 19 11.5833C28.6036 11.5833 36.4167 19.3964 36.4167 29C36.4167 38.6036 28.6036 46.4167 19 46.4167Z" fill="#0C6FF9"/>
<path d="M15.0417 36.9167C14.9118 36.9167 14.7804 36.8842 14.6629 36.82C14.4077 36.6809 14.25 36.4149 14.25 36.125V21.875C14.25 21.5851 14.4077 21.3191 14.6629 21.1799C14.9134 21.0415 15.2272 21.0516 15.47 21.2093L26.5533 28.3343C26.7791 28.4796 26.9167 28.7309 26.9167 29C26.9167 29.269 26.7791 29.5202 26.5533 29.6656L15.47 36.7906C15.3401 36.8749 15.1901 36.9167 15.0417 36.9167Z" fill="#0345EC"/>
<path d="M15.8333 23.3254V34.6746L24.6607 29L15.8333 23.3254Z" fill="#1F1F23"/>
<path d="M15.8333 29V34.6746L24.6607 29H15.8333Z" fill="black"/>
<path d="M54.196 29.712V43H58.068V29.712L67.088 12.2H62.82L56.132 25.84L49.444 12.2H45.176L54.196 29.712ZM82.4626 11.848C75.1146 11.848 68.6466 17.348 68.6466 27.6C68.6466 37.852 75.1146 43.352 82.4626 43.352C89.8106 43.352 96.2786 37.852 96.2786 27.6C96.2786 17.348 89.8106 11.848 82.4626 11.848ZM82.4626 15.544C87.9186 15.544 92.2746 19.548 92.2746 27.6C92.2746 35.652 87.9186 39.656 82.4626 39.656C77.0066 39.656 72.6506 35.652 72.6506 27.6C72.6506 19.548 77.0066 15.544 82.4626 15.544ZM116.625 31.164H123.269C122.917 36.092 120.101 39.656 114.777 39.656C109.101 39.656 104.877 35.564 104.877 27.6C104.877 19.636 109.101 15.544 114.777 15.544C118.869 15.544 121.729 17.964 123.137 22.276L126.877 21.176C125.513 15.588 121.245 11.848 114.777 11.848C107.605 11.848 100.873 16.908 100.873 27.6C100.873 38.292 107.605 43.352 114.601 43.352C118.781 43.352 121.817 41.328 123.269 38.776L123.665 43H126.965V27.468H116.625V31.164ZM131.251 43H135.123L137.851 34.772H149.643L152.371 43H156.243L145.595 12.2H141.899L131.251 43ZM139.083 31.076L143.747 17.216L148.411 31.076H139.083ZM171.293 29.8C177.057 29.8 180.445 26.368 180.445 21C180.445 15.632 177.057 12.2 171.293 12.2H160.557V43H164.429V29.8H171.293ZM171.513 26.104H164.429V15.896H171.513C174.681 15.896 176.441 17.744 176.441 21C176.441 24.256 174.681 26.104 171.513 26.104ZM185.565 12.2V43H203.429V39.304H189.437V12.2H185.565ZM206.575 43H210.447L213.175 34.772H224.967L227.695 43H231.567L220.919 12.2H217.223L206.575 43ZM214.407 31.076L219.071 17.216L223.735 31.076H214.407ZM239.348 29.712V43H243.22V29.712L252.24 12.2H247.972L241.284 25.84L234.596 12.2H230.328L239.348 29.712Z" fill="white"/>
</svg>
